# xmcd
# 
# Track frame offsets:
#     150
#     15963
#     31292
#     47681
#     63014
#     81249
#     102670
#     119414
#     137874
#     150396
#     166969
#     182523
#     196622
#     212648
#     232203
# 
# Disc length: 3339
# 
# Revision: 0
# Processed by: cddbd v1.5.2PL0 Copyright (c) Steve Scherf et al.
# Submitted via: BonkEnc v1.0.15
# 
DISCID=be0d090f
DTITLE=Kelly Clarkson - All I Ever Wanted
DYEAR=2009
DGENRE=Country
TTITLE0=My Life Would Suck Without You
TTITLE1=I Do Not Hook Up
TTITLE2=Cry
TTITLE3=Don't Let Me Stop You
TTITLE4=All I Ever Wanted
TTITLE5=Already Gone
TTITLE6=If I Can't Have You
TTITLE7=Save You
TTITLE8=Whyyawannabringmedown
TTITLE9=Long Shot
TTITLE10=Impossible
TTITLE11=Ready
TTITLE12=I Want You
TTITLE13=Tip Of My Tongue
TTITLE14=The Day We Fell Apart
EXTD=
EXTT0=
EXTT1=
EXTT2=
EXTT3=
EXTT4=
EXTT5=
EXTT6=
EXTT7=
EXTT8=
EXTT9=
EXTT10=
EXTT11=
EXTT12=
EXTT13=
EXTT14=
PLAYORDER=
